<svg width="73" height="44" viewBox="0 0 73 44" fill="none" xmlns="http://www.w3.org/2000/svg">
<path d="M44.0942 11.0314C41.5901 13.161 40.0052 16.3298 40.0052 19.867C40.0052 18.905 39.6118 18.0285 38.9773 17.4C38.3462 16.768 37.4661 16.3762 36.5002 16.3762C34.5645 16.3762 32.9952 17.9391 32.9952 19.867C32.9952 16.3298 31.4103 13.161 28.9062 11.0314C30.9467 9.28633 33.6026 8.23102 36.5002 8.23102C39.3978 8.23102 42.0537 9.28633 44.0942 11.0314Z" fill="#003D83"/>
<path d="M32.9952 19.867V35.7688H24.8173V19.867C24.8173 16.3298 26.4022 13.161 28.9062 11.0314C31.4103 13.161 32.9952 16.3298 32.9952 19.867Z" fill="#00234B"/>
<path d="M28.9062 11.0317C26.4021 13.1612 24.8173 16.3301 24.8173 19.8672C24.8173 18.9053 24.4238 18.0287 23.7893 17.4003C23.1583 16.7683 22.2781 16.3765 21.3123 16.3765C19.3765 16.3765 17.8072 17.9394 17.8072 19.8672V35.7691H9.62939V19.8672C9.62939 13.4403 14.8596 8.23187 21.3123 8.23187C24.2098 8.2313 26.8658 9.28661 28.9062 11.0317Z" fill="#003D83"/>
<path d="M48.183 19.867V35.7688H40.0052V19.867C40.0052 16.3298 41.59 13.161 44.0941 11.0314C46.5982 13.161 48.183 16.3298 48.183 19.867Z" fill="#C242CA"/>
<path d="M51.6881 21.4184H48.183V29.1757H51.6881V21.4184Z" fill="#FD44E0"/>
<path d="M63.371 19.867H55.1932C55.1932 18.905 54.7997 18.0285 54.1652 17.4C53.5341 16.768 52.654 16.3762 51.6881 16.3762C49.7524 16.3762 48.1831 17.9391 48.1831 19.867C48.1831 16.3298 46.5983 13.161 44.0942 11.0314C46.1346 9.28633 48.7906 8.23102 51.6881 8.23102C58.1414 8.23102 63.371 13.44 63.371 19.867Z" fill="#FD44E0"/>
</svg>
